fd_4_states
version=1
nRows=43
nColumns=17
inDegrees=yes

# SIMM Motion File Header:
name fd_4_states
datacolumns 17
datarows 43
otherdata 1
range 0.030000 0.079890
endheader
time	/jointset/r_shoulder/r_shoulder_elev/value	/jointset/r_shoulder/r_shoulder_elev/speed	/jointset/r_elbow/r_elbow_flex/value	/jointset/r_elbow/r_elbow_flex/speed	/forceset/TRIlong/activation	/forceset/TRIlong/fiber_length	/forceset/TRIlat/activation	/forceset/TRIlat/fiber_length	/forceset/TRImed/activation	/forceset/TRImed/fiber_length	/forceset/BIClong/activation	/forceset/BIClong/fiber_length	/forceset/BICshort/activation	/forceset/BICshort/fiber_length	/forceset/BRA/activation	/forceset/BRA/fiber_length
      0.030000	      0.000000	      0.000000	     -0.000000	     -0.205405	      0.034772	      0.136390	      0.029938	      0.070365	      0.030323	      0.065432	      0.020000	      0.148476	      0.020000	      0.147802	      0.020000	      0.093434
      0.030061	     -0.000000	     -0.000937	     -0.000012	     -0.189085	      0.034760	      0.136390	      0.029930	      0.070365	      0.030314	      0.065432	      0.020020	      0.148476	      0.020675	      0.147802	      0.020455	      0.093434
      0.030123	     -0.000000	     -0.001883	     -0.000023	     -0.172732	      0.034747	      0.136390	      0.029921	      0.070365	      0.030306	      0.065432	      0.020047	      0.148476	      0.021556	      0.147802	      0.020735	      0.093434
      0.030430	     -0.000001	     -0.007013	     -0.000064	     -0.089702	      0.034685	      0.136390	      0.029880	      0.070365	      0.030263	      0.065432	      0.020175	      0.148476	      0.025779	      0.147797	      0.022084	      0.093433
      0.031964	     -0.000047	     -0.062758	      0.000163	      0.417864	      0.034378	      0.136392	      0.029676	      0.070366	      0.030050	      0.065433	      0.020716	      0.148474	      0.043148	      0.147729	      0.027730	      0.093419
      0.034123	     -0.000388	     -0.284531	      0.002206	      1.569813	      0.033956	      0.136395	      0.029396	      0.070367	      0.029759	      0.065434	      0.021255	      0.148469	      0.060051	      0.147587	      0.033312	      0.093391
      0.036282	     -0.001412	     -0.693765	      0.007359	      3.295803	      0.033547	      0.136399	      0.029124	      0.070369	      0.029476	      0.065436	      0.021613	      0.148465	      0.071351	      0.147447	      0.037033	      0.093366
      0.039355	     -0.004791	     -1.553155	      0.022349	      6.607688	      0.032987	      0.136406	      0.028751	      0.070373	      0.029089	      0.065440	      0.021928	      0.148459	      0.081589	      0.147277	      0.040331	      0.093339
      0.039806	     -0.005525	     -1.701434	      0.025454	      7.162821	      0.032907	      0.136407	      0.028697	      0.070374	      0.029033	      0.065441	      0.021960	      0.148459	      0.082692	      0.147255	      0.040678	      0.093335
      0.039998	     -0.005857	     -1.765973	      0.026851	      7.403580	      0.032873	      0.136407	      0.028675	      0.070374	      0.029010	      0.065442	      0.021973	      0.148458	      0.083137	      0.147246	      0.040817	      0.093334
      0.040112	     -0.006060	     -1.804579	      0.027701	      7.547359	      0.032853	      0.136408	      0.028661	      0.070375	      0.028996	      0.065442	      0.022449	      0.148458	      0.083156	      0.147241	      0.041638	      0.093333
      0.040225	     -0.006267	     -1.843520	      0.028566	      7.692183	      0.032833	      0.136408	      0.028648	      0.070375	      0.028982	      0.065442	      0.023143	      0.148458	      0.083113	      0.147236	      0.042803	      0.093332
      0.040793	     -0.007371	     -2.044916	      0.033145	      8.437107	      0.032733	      0.136409	      0.028582	      0.070376	      0.028913	      0.065443	      0.026385	      0.148452	      0.082901	      0.147212	      0.048245	      0.093325
      0.042506	     -0.011454	     -2.753195	      0.049705	     10.996102	      0.032437	      0.136414	      0.028384	      0.070380	      0.028708	      0.065447	      0.034212	      0.148418	      0.082274	      0.147151	      0.061427	      0.093291
      0.044567	     -0.018223	     -3.860415	      0.076211	     14.862879	      0.032091	      0.136421	      0.028153	      0.070386	      0.028468	      0.065453	      0.040787	      0.148368	      0.081542	      0.147096	      0.072634	      0.093245
      0.047095	     -0.030087	     -5.589301	      0.120976	     20.748728	      0.031679	      0.136430	      0.027879	      0.070396	      0.028182	      0.065464	      0.046073	      0.148311	      0.080677	      0.147048	      0.081848	      0.093195
      0.049070	     -0.042662	     -7.170991	      0.167121	     26.060930	      0.031368	      0.136439	      0.027671	      0.070406	      0.027966	      0.065474	      0.048814	      0.148274	      0.080026	      0.147020	      0.086762	      0.093161
      0.049739	     -0.047649	     -7.741877	      0.185192	     27.969409	      0.031264	      0.136442	      0.027602	      0.070410	      0.027894	      0.065478	      0.049545	      0.148263	      0.079810	      0.147012	      0.088095	      0.093151
      0.049988	     -0.049603	     -7.958032	      0.192243	     28.691189	      0.031226	      0.136443	      0.027576	      0.070412	      0.027868	      0.065480	      0.049795	      0.148259	      0.079731	      0.147009	      0.088556	      0.093147
      0.050109	     -0.050571	     -8.063613	      0.195729	     29.043598	      0.031208	      0.136443	      0.027564	      0.070413	      0.027855	      0.065481	      0.050339	      0.148257	      0.079802	      0.147008	      0.088588	      0.093145
      0.050230	     -0.051551	     -8.169625	      0.199259	     29.397358	      0.031189	      0.136444	      0.027551	      0.070413	      0.027842	      0.065482	      0.051152	      0.148255	      0.080084	      0.147006	      0.088573	      0.093143
      0.050834	     -0.056646	     -8.705362	      0.217550	     31.184400	      0.031097	      0.136447	      0.027490	      0.070418	      0.027778	      0.065486	      0.054949	      0.148244	      0.081412	      0.146999	      0.088498	      0.093134
      0.053853	     -0.087071	    -11.458182	      0.325538	     40.392613	      0.030649	      0.136464	      0.027190	      0.070444	      0.027467	      0.065513	      0.068736	      0.148166	      0.086386	      0.146957	      0.088135	      0.093098
      0.056873	     -0.125829	    -14.201971	      0.461556	     49.683034	      0.030219	      0.136484	      0.026903	      0.070479	      0.027168	      0.065550	      0.076858	      0.148088	      0.089435	      0.146911	      0.087790	      0.093065
      0.058522	     -0.150449	    -15.660272	      0.547595	     54.682629	      0.029992	      0.136496	      0.026751	      0.070503	      0.027010	      0.065574	      0.079827	      0.148050	      0.090573	      0.146886	      0.087608	      0.093045
      0.059450	     -0.165371	    -16.465815	      0.599682	     57.464501	      0.029866	      0.136504	      0.026667	      0.070518	      0.026922	      0.065590	      0.081176	      0.148030	      0.091095	      0.146872	      0.087508	      0.093034
      0.059908	     -0.172994	    -16.858069	      0.626285	     58.824466	      0.029805	      0.136507	      0.026625	      0.070526	      0.026880	      0.065598	      0.081768	      0.148021	      0.091325	      0.146866	      0.087459	      0.093028
      0.060085	     -0.175999	    -17.009378	      0.636770	     59.350009	      0.029781	      0.136509	      0.026610	      0.070529	      0.026863	      0.065601	      0.082134	      0.148017	      0.091474	      0.146863	      0.087426	      0.093026
      0.060263	     -0.179031	    -17.160219	      0.647348	     59.874464	      0.029758	      0.136511	      0.026594	      0.070532	      0.026847	      0.065604	      0.083229	      0.148014	      0.091942	      0.146860	      0.087322	      0.093024
      0.060629	     -0.185368	    -17.469824	      0.669458	     60.952693	      0.029709	      0.136514	      0.026561	      0.070539	      0.026813	      0.065611	      0.085390	      0.148006	      0.092868	      0.146855	      0.087109	      0.093019
      0.062459	     -0.218732	    -18.985619	      0.785883	     66.271267	      0.029470	      0.136531	      0.026401	      0.070575	      0.026647	      0.065647	      0.094379	      0.147961	      0.096757	      0.146824	      0.086061	      0.092994
      0.066332	     -0.298193	    -22.008177	      1.063720	     77.119734	      0.028985	      0.136573	      0.026076	      0.070664	      0.026308	      0.065737	      0.106442	      0.147860	      0.102056	      0.146750	      0.083949	      0.092937
      0.067976	     -0.335376	    -23.216268	      1.194178	     81.560420	      0.028786	      0.136593	      0.025942	      0.070707	      0.026170	      0.065780	      0.109709	      0.147820	      0.103501	      0.146718	      0.083094	      0.092909
      0.069036	     -0.360403	    -23.973140	      1.282180	     84.375150	      0.028661	      0.136607	      0.025858	      0.070737	      0.026082	      0.065810	      0.111416	      0.147796	      0.104256	      0.146697	      0.082554	      0.092890
      0.069822	     -0.379467	    -24.523181	      1.349326	     86.436831	      0.028569	      0.136617	      0.025796	      0.070759	      0.026018	      0.065832	      0.112514	      0.147779	      0.104741	      0.146682	      0.082160	      0.092876
      0.070047	     -0.384986	    -24.678475	      1.368785	     87.021396	      0.028543	      0.136621	      0.025779	      0.070766	      0.026000	      0.065839	      0.112909	      0.147774	      0.104868	      0.146678	      0.082050	      0.092872
      0.070242	     -0.389820	    -24.813060	      1.385833	     87.528910	      0.028520	      0.136623	      0.025764	      0.070772	      0.025984	      0.065845	      0.114109	      0.147770	      0.104963	      0.146674	      0.081967	      0.092868
      0.070437	     -0.394680	    -24.947077	      1.402979	     88.035139	      0.028498	      0.136626	      0.025749	      0.070778	      0.025969	      0.065851	      0.115353	      0.147765	      0.105054	      0.146671	      0.081884	      0.092865
      0.071414	     -0.419368	    -25.608835	      1.490186	     90.548013	      0.028386	      0.136640	      0.025674	      0.070807	      0.025891	      0.065880	      0.121017	      0.147742	      0.105471	      0.146653	      0.081477	      0.092846
      0.074942	     -0.513791	    -27.892467	      1.825361	     99.408376	      0.027994	      0.136696	      0.025410	      0.070923	      0.025617	      0.065995	      0.135579	      0.147646	      0.106552	      0.146589	      0.080059	      0.092772
      0.078470	     -0.616002	    -30.027831	      2.191282	    107.988354	      0.027621	      0.136758	      0.025160	      0.071050	      0.025357	      0.066123	      0.144174	      0.147551	      0.107183	      0.146529	      0.078721	      0.092689
      0.079397	     -0.644077	    -30.566825	      2.292373	    110.201229	      0.027526	      0.136776	      0.025096	      0.071086	      0.025291	      0.066158	      0.145793	      0.147528	      0.107300	      0.146513	      0.078382	      0.092666
      0.079890	     -0.659237	    -30.850568	      2.347065	    111.373774	      0.027476	      0.136786	      0.025062	      0.071105	      0.025256	      0.066177	      0.146572	      0.147516	      0.107356	      0.146504	      0.078204	      0.092653
